<svg data-v-1084b650="" xmlns="http://www.w3.org/2000/svg" viewBox="0 0 300 300"><!----> <!----> <rect data-v-1084b650="" fill="#ffffff" x="0" y="0" width="300px" height="300px" class="logo-background-square"></rect> <!----> <linearGradient data-v-1084b650="" gradientTransform="rotate(25)" id="83da14e5-07fb-8c5e-a08b-bcdd80c4e9de" x1="0%" y1="0%" x2="100%" y2="0%"><stop data-v-1084b650="" offset="0%" style="stop-color: rgb(0, 102, 120); stop-opacity: 1;"></stop> <stop data-v-1084b650="" offset="100%" style="stop-color: rgb(79, 168, 255); stop-opacity: 1;"></stop></linearGradient> <g data-v-1084b650="" id="e195dcee-b0c1-9637-fd60-299d6a393778" fill="url(#83da14e5-07fb-8c5e-a08b-bcdd80c4e9de)" stroke="none" transform="matrix(0.7499999999999998,0,0,0.7499999999999998,37.56121516227725,36.93750000000003)"><svg xmlns="http://www.w3.org/2000/svg" xmlns:xlink="http://www.w3.org/1999/xlink" version="1.1" x="0px" y="0px" viewBox="0 0 100 100" style="enable-background:new 0 0 100 100;" xml:space="preserve"><path d="M66.2,16c4.7,0,8.8,1.7,12.3,5.1c0.2,0.2,0.4,0.3,0.6,0.3c0.1,0,0.1,0,0.2,0c3.5-0.8,6.5-2,9.2-3.4c0.1-0.1,1.1-0.6,1.3-0.7  c-1.4,4.1-3.9,7.2-7.5,9.5c1.7-0.2,3.3-0.5,4.9-0.9c1.6-0.4,3.2-1,4.9-1.7c-0.8,1.2-1.6,2.3-2.5,3.3c-1.7,2-3.7,3.8-5.8,5.4  c-0.2,0.2-0.3,0.3-0.3,0.6c0,1,0,1.9,0,2.9c0,0,0,0,0,0.1c0,0,0,0,0,0C83.1,48.4,79,59,71.3,68.2C65,75.5,57.2,80.5,47.8,83  c-2.9,0.8-5.9,1.3-8.8,1.6c-0.4,0-0.8,0-1.3,0c-0.6,0-1.1,0-1.7,0c0,0,0,0,0,0c-1.1,0-2.2,0-3.2,0c-0.7,0-1.4,0-2.2,0  c-2.4,0-4.7-0.4-7-0.9C18,82.5,12.9,80.4,8,77.4c-0.1-0.1-0.2-0.2-0.3-0.3c1.3,0.1,2.5,0.2,3.8,0.2c3.2,0,6.5-0.4,9.6-1.3  c4.4-1.2,8.4-3.2,12-6.1c-7.9-0.7-13.3-4.7-16.1-12c1,0.2,2.1,0.2,3.1,0.2c1.5,0,3.1-0.2,4.6-0.6c-4-0.9-7.3-3-9.9-6.2  c-2.6-3.2-3.8-6.9-3.8-11.1c2.4,1.3,5,2.1,7.7,2.1c-3.7-2.7-6.1-6.1-7.1-10.5c-1-4.4-0.3-8.6,1.9-12.6c0.3,0.3,0.5,0.5,0.7,0.8  c7.3,8.5,16.4,13.9,27.4,16.3c2.4,0.5,4.7,0.8,7.1,1c0.1,0,0.2,0,0.3,0c0,0,0.1,0,0.1,0c0.2,0,0.2-0.1,0.2-0.4  c-0.3-1.5-0.4-3.1-0.3-4.6c0.3-4.9,2.3-8.9,6-12.1c2.7-2.4,5.8-3.8,9.4-4.1C64.8,16.1,65.5,16,66.2,16 M92.1,24.2L92.1,24.2   M66.2,10L66.2,10c-0.9,0-1.7,0-2.6,0.1c-4.8,0.5-9.1,2.4-12.8,5.6c-4.5,4-7.2,8.9-7.9,14.8c-0.1,0-0.1,0-0.2,0  c-9.7-2.1-17.6-6.8-24.1-14.4l-0.4-0.5l-0.2-0.3c-1.1-1.3-2.8-2.1-4.6-2.1c-0.2,0-0.4,0-0.6,0c-2,0.2-3.7,1.3-4.6,3  c-3,5.3-3.8,11-2.5,16.8c0.2,1,0.5,2,0.9,3c-1,1.1-1.6,2.6-1.6,4.1c0,5.6,1.7,10.6,5.2,14.8c0.4,0.5,0.7,0.9,1.1,1.3  c-0.3,1.2-0.2,2.4,0.2,3.6c1.7,4.3,4.1,7.8,7.2,10.4c-2.3,0.6-4.7,0.9-7.1,0.9c-1,0-2.1-0.1-3.2-0.2c-0.2,0-0.4,0-0.6,0  c-2.2,0-4.3,1.2-5.3,3.3c-1.1,2.2-0.8,4.8,0.8,6.7c0.5,0.6,1,1,1.7,1.4c5.5,3.4,11.3,5.8,17.5,7.1c2.5,0.5,5.3,1,8.2,1.1  c0.7,0,1.5,0,2.2,0l1.9,0l1.3,0c0,0,0,0,0,0c0.3,0,0.5,0,0.8,0c0.3,0,0.6,0,1,0c0.7,0,1.2,0,1.8-0.1c3.4-0.3,6.7-0.9,9.9-1.8  C60,86,68.9,80.3,75.8,72c8.5-10,13.1-21.7,13.6-34.8c0.1-0.4,0.1-0.8,0-1.2c1.7-1.4,3.2-3,4.7-4.6c1.1-1.3,2-2.5,2.9-3.8  c0.7-1,1.1-2.2,1.1-3.4c0-2.1-1-3.9-2.6-5c0.8-2.4,0.1-5-1.9-6.5c-1.1-0.9-2.5-1.4-3.8-1.4c-1,0-2,0.3-2.9,0.8l-0.2,0.1  c-0.3,0.2-0.8,0.4-1,0.5c-1.8,0.9-3.5,1.7-5.3,2.2C76.3,11.7,71.5,10,66.2,10L66.2,10z"></path></svg></g></svg>