<svg height="416pt" viewBox="-31 0 416 416.42667" width="416pt" xmlns="http://www.w3.org/2000/svg"><path d="m348.375 409.601562h-341.335938v-61.878906c0-33.152344 29.910157-60.027344 66.804688-60.027344l103.863281-4.386718 103.863281 4.386718c36.894532 0 66.804688 26.875 66.804688 60.027344zm0 0" fill="#595959"/><path d="m348.375 416.425781h-341.335938c-3.769531 0-6.824218-3.050781-6.824218-6.824219v-61.882812c0-36.859375 33.03125-66.851562 73.628906-66.851562l103.578125-4.378907 104.433594 4.382813h.015625c40.308594 0 73.328125 29.988281 73.328125 66.847656v61.882812c0 3.773438-3.054688 6.824219-6.824219 6.824219zm-334.507812-13.652343h327.679687v-55.054688c0-29.332031-26.90625-53.199219-59.976563-53.199219l-104.148437-4.394531-103.292969 4.386719c-33.355468.007812-60.261718 23.875-60.261718 53.207031zm0 0"/><path d="m232.320312 291.839844c-34.378906 10.742187-74.847656 10.742187-109.226562 0v-59.734375h109.226562zm0 0" fill="#eac583"/><path d="m177.707031 306.671875c-19.457031 0-38.914062-2.773437-56.648437-8.320313-2.851563-.886718-4.792969-3.523437-4.792969-6.511718v-59.734375c0-3.773438 3.058594-6.824219 6.828125-6.824219h109.226562c3.769532 0 6.828126 3.050781 6.828126 6.824219v59.734375c0 2.988281-1.941407 5.628906-4.792969 6.511718-17.734375 5.546876-37.191407 8.320313-56.648438 8.320313zm-47.785156-19.929687c30.285156 8.398437 65.285156 8.398437 95.570313 0v-47.808594h-95.570313zm102.398437 5.097656h.066407zm0 0"/><path d="m252.800781 361.8125h75.09375v47.789062h-75.09375zm0 0" fill="#fff" fill-rule="evenodd"/><path d="m327.894531 416.425781h-75.09375c-3.769531 0-6.828125-3.050781-6.828125-6.824219v-47.789062c0-3.773438 3.058594-6.824219 6.828125-6.824219h75.09375c3.769531 0 6.824219 3.050781 6.824219 6.824219v47.789062c0 3.773438-3.054688 6.824219-6.824219 6.824219zm-68.269531-13.652343h61.441406v-34.132813h-61.441406zm0 0"/><path d="m228.609375 232.105469h-101.804687c-24.671876 0-44.671876-20-44.671876-44.671875v-123.191406c0-9.085938 7.367188-16.457032 16.457032-16.457032h158.234375c9.089843 0 16.457031 7.371094 16.457031 16.457032v123.191406c0 24.671875-20 44.671875-44.671875 44.671875zm0 0" fill="#ffdd95"/><path d="m228.605469 238.933594h-101.796875c-28.398438 0-51.5-23.101563-51.5-51.5v-123.191406c0-12.835938 10.441406-23.28125 23.28125-23.28125h158.234375c12.839843 0 23.28125 10.445312 23.28125 23.28125v123.191406c0 28.398437-23.101563 51.5-51.5 51.5zm-130.015625-184.320313c-5.308594 0-9.628906 4.320313-9.628906 9.628907v123.191406c0 20.867187 16.976562 37.847656 37.847656 37.847656h101.796875c20.871093 0 37.847656-16.980469 37.847656-37.847656v-123.191406c0-5.308594-4.320313-9.628907-9.628906-9.628907zm0 0"/><path d="m247.09375 95.574219h-164.960938v-60.300781c0-15.710938 12.738282-28.445313 28.445313-28.445313h183.183594v42.078125c0 25.773438-20.894531 46.667969-46.667969 46.667969zm0 0" fill="#fcad3a"/><path d="m247.09375 102.398438h-164.960938c-3.769531 0-6.824218-3.050782-6.824218-6.824219v-60.300781c0-19.449219 15.820312-35.273438 35.269531-35.273438h183.183594c3.769531 0 6.824219 3.054688 6.824219 6.828125v42.078125c0 29.496094-23.996094 53.492188-53.492188 53.492188zm-158.132812-13.652344h158.132812c21.964844 0 39.839844-17.875 39.839844-39.839844v-35.253906h-176.355469c-11.917969 0-21.617187 9.703125-21.617187 21.621094zm0 0"/><path d="m172.042969 177.515625v-4.894531c0-4.78125.953125-7.167969 3.105469-10.144532l9.425781-12.894531c2.867187-3.820312 4.0625-6.570312 4.0625-9.792969 0-5.136718-3.585938-8.953124-9.3125-8.953124-5.609375 0-9.070313 3.464843-10.148438 9.554687-.117187.710937-.597656 1.070313-1.3125.953125l-10.742187-1.671875c-.839844-.113281-1.074219-.714844-.957032-1.429687 1.910157-11.9375 10.503907-19.339844 23.636719-19.339844 13.132813 0 22.441407 8.59375 22.441407 20.769531 0 5.132813-1.550782 9.550781-4.894532 13.972656l-9.429687 12.886719c-1.789063 2.273438-2.382813 3.941406-2.382813 7.519531v3.464844c0 .714844-.480468 1.195313-1.199218 1.195313h-11.097657c-.71875-.003907-1.195312-.484376-1.195312-1.195313zm-.480469 10.496094c0-.710938.480469-1.191407 1.195312-1.191407h11.9375c.71875 0 1.191407.480469 1.191407 1.191407v12.183593c0 .710938-.472657 1.191407-1.191407 1.191407h-11.9375c-.714843 0-1.195312-.480469-1.195312-1.191407zm0 0"/></svg>